<?xml version="1.0" standalone="no"?>
<!DOCTYPE svg PUBLIC "-//W3C//DTD SVG 20010904//EN"
 "http://www.w3.org/TR/2001/REC-SVG-20010904/DTD/svg10.dtd">
<svg version="1.0" xmlns="http://www.w3.org/2000/svg"
 width="855.000000pt" height="855.000000pt" viewBox="0 0 855.000000 855.000000"
 preserveAspectRatio="xMidYMid meet">
<metadata>
Created by potrace 1.15, written by Peter Selinger 2001-2017
</metadata>
<g transform="translate(0.000000,855.000000) scale(0.100000,-0.100000)"
fill="#000000" stroke="none">
<path d="M2532 7984 c-11 -12 -10 -15 2 -20 8 -3 17 -16 20 -30 4 -13 13 -24
21 -24 8 0 16 -4 16 -10 2 -11 5 -25 9 -37 1 -5 2 -12 1 -16 -1 -5 3 -6 8 -3
5 3 14 0 20 -8 9 -11 5 -16 -20 -25 -18 -6 -34 -11 -35 -11 -9 0 -3 39 6 45 7
4 2 15 -12 27 -18 16 -24 17 -26 5 -2 -9 -11 -12 -30 -9 -27 5 -27 5 -8 -17
11 -11 16 -24 12 -29 -4 -4 -14 2 -22 12 -7 11 -17 17 -21 13 -3 -4 2 -17 13
-29 10 -12 14 -19 8 -15 -12 7 -33 -32 -27 -50 2 -7 11 -9 19 -6 13 5 13 7 3
14 -8 4 -11 11 -7 14 9 10 49 -5 43 -15 -3 -5 0 -10 7 -12 13 -5 2 -28 -13
-28 -6 0 -8 4 -5 9 4 5 -3 7 -13 4 -11 -3 -22 -15 -25 -28 -3 -13 -15 -27 -26
-30 -11 -3 -20 -15 -20 -26 0 -10 -4 -19 -10 -19 -5 0 -7 -7 -4 -15 6 -14 8
-13 19 1 16 22 38 9 29 -18 -4 -13 -2 -18 4 -14 5 3 15 0 21 -8 8 -10 5 -16
-17 -26 l-27 -12 25 -10 c18 -6 21 -11 11 -17 -8 -5 -26 4 -52 28 -22 19 -36
37 -30 39 16 5 13 22 -4 22 -8 0 -15 -4 -15 -10 0 -11 -28 -9 -47 3 -7 4 -16
0 -22 -10 -5 -10 -12 -15 -16 -11 -4 3 1 18 10 32 10 14 13 26 7 26 -6 0 -12
-6 -15 -12 -8 -25 -14 -2 -9 40 4 38 7 42 26 37 18 -5 19 -4 5 7 -9 7 -14 19
-12 26 3 6 0 12 -6 12 -6 0 -11 -5 -11 -11 0 -5 -5 -7 -10 -4 -6 3 -14 -3 -18
-14 -7 -21 -8 -21 -41 7 -30 25 -32 31 -22 50 6 12 18 22 27 22 12 0 42 50 32
54 -2 0 -13 7 -26 14 -18 10 -27 10 -38 1 -7 -6 -11 -15 -8 -20 3 -5 -2 -6
-10 -3 -17 7 -17 6 -22 -45 -1 -19 -8 -37 -14 -41 -9 -5 -9 -9 -1 -14 10 -7
10 -21 -1 -66 -2 -11 5 -15 25 -14 15 0 27 -4 27 -8 0 -4 8 -8 18 -9 10 0 12
-3 5 -6 -7 -2 -13 -9 -13 -15 0 -6 6 -8 14 -5 10 4 12 0 9 -14 -7 -26 -16 -24
-36 11 -10 17 -24 30 -31 30 -13 0 -32 -61 -27 -87 1 -7 -3 -13 -9 -13 -6 0
-8 -11 -4 -27 4 -21 3 -24 -5 -13 -15 21 -20 10 -27 -58 -6 -51 -4 -63 9 -68
9 -3 13 -12 11 -19 -3 -8 -12 -11 -20 -8 -8 3 -14 -1 -14 -11 0 -9 6 -16 13
-16 8 0 9 -3 1 -8 -16 -10 -28 -147 -14 -172 8 -16 8 -20 -2 -18 -8 2 -12 -7
-11 -24 1 -16 -2 -28 -8 -28 -5 0 -9 -11 -9 -25 0 -14 4 -25 9 -25 6 0 9 -9 8
-20 -1 -11 -5 -20 -9 -20 -4 0 -5 -7 -2 -15 3 -8 -2 -22 -11 -31 -12 -13 -16
-31 -13 -71 1 -29 0 -53 -4 -53 -4 0 -5 -30 -2 -66 2 -36 0 -71 -5 -78 -17
-21 -18 -111 0 -100 8 4 8 1 1 -12 -5 -11 -8 -41 -7 -69 1 -29 -5 -61 -13 -77
-13 -23 -14 -33 -2 -67 11 -34 11 -43 0 -56 -11 -14 -11 -18 -1 -25 11 -6 11
-8 0 -12 -9 -3 -15 -24 -17 -59 -3 -58 -16 -200 -32 -343 -6 -56 -6 -96 0
-107 7 -12 6 -20 -1 -25 -6 -3 -9 -14 -6 -24 2 -9 0 -24 -4 -33 -5 -9 -10 -46
-10 -84 -1 -37 -5 -77 -9 -89 -6 -14 -4 -29 6 -43 14 -19 13 -21 -2 -21 -12 0
-15 -7 -12 -30 2 -16 0 -31 -5 -33 -11 -3 2 -57 14 -57 13 0 11 -28 -2 -32
-12 -4 -20 -61 -21 -145 0 -31 -5 -43 -15 -43 -11 0 -13 -7 -9 -25 4 -14 2
-25 -3 -25 -5 0 -9 -16 -8 -35 1 -23 6 -35 15 -35 8 0 12 -6 9 -15 -4 -8 -2
-17 3 -20 19 -12 10 -26 -11 -20 -17 6 -20 4 -16 -12 3 -10 9 -33 12 -51 6
-30 5 -33 -12 -28 -16 5 -19 1 -19 -29 0 -37 5 -42 23 -24 7 7 11 -21 11 -98
1 -131 -4 -164 -24 -156 -11 4 -13 -2 -10 -23 4 -33 15 -82 23 -104 9 -24 9
-44 0 -57 -10 -13 -12 -98 -4 -175 5 -52 -8 -73 -38 -61 -16 6 -17 2 -11 -28
3 -18 20 -51 37 -72 32 -40 33 -82 2 -70 -12 5 -15 2 -10 -10 4 -12 2 -14 -10
-10 -13 5 -15 2 -10 -11 4 -10 7 -26 7 -37 0 -10 6 -19 14 -19 23 0 45 -83 25
-95 -5 -4 -9 -14 -9 -24 0 -10 -6 -24 -14 -30 -15 -13 -12 -38 11 -90 11 -25
17 -30 24 -20 5 8 9 9 9 4 0 -6 -4 -15 -9 -20 -12 -13 -2 -65 12 -65 5 0 2 -9
-7 -19 -13 -14 -18 -37 -18 -81 0 -47 -3 -60 -13 -56 -10 4 -13 -5 -12 -35 1
-38 19 -54 30 -26 3 6 6 2 6 -11 1 -16 -4 -22 -16 -20 -12 2 -17 -2 -14 -12 2
-8 5 -26 6 -40 2 -18 7 -24 20 -22 10 2 15 -2 13 -10 -3 -7 -14 -14 -26 -16
-20 -3 -22 -9 -20 -58 2 -39 7 -53 16 -49 7 3 10 1 7 -4 -3 -5 -1 -12 5 -16 6
-4 8 -10 5 -14 -9 -16 -14 -151 -4 -146 15 10 10 -7 -6 -19 -12 -9 -17 -35
-19 -109 -2 -53 -8 -103 -12 -109 -5 -7 -8 -26 -7 -43 9 -133 5 -179 -15 -196
-14 -11 -19 -23 -15 -38 4 -15 1 -21 -10 -21 -9 0 -22 -13 -31 -30 -13 -28
-13 -30 4 -30 10 0 21 8 23 18 4 16 5 16 6 0 0 -10 6 -18 11 -18 6 0 10 -7 10
-16 0 -14 -3 -14 -15 -4 -9 7 -18 10 -22 7 -8 -8 53 -65 75 -69 22 -4 29 -38
8 -38 -23 0 -20 -21 4 -27 11 -3 20 -10 20 -15 0 -5 10 -8 22 -6 17 2 23 -2
21 -16 -1 -12 9 -22 28 -30 22 -8 29 -16 25 -30 -3 -11 5 -32 18 -50 13 -17
26 -39 30 -50 4 -11 12 -16 21 -12 9 3 15 0 15 -10 0 -8 7 -17 15 -20 8 -4 15
-12 15 -18 0 -7 15 -12 35 -12 27 0 35 4 35 17 0 10 5 21 11 25 6 3 9 15 6 25
-3 11 -1 17 4 13 5 -3 9 6 9 20 0 31 9 32 44 5 14 -11 26 -18 26 -15 0 3 10 2
22 -3 17 -6 26 -4 35 8 10 14 13 14 32 -3 21 -19 22 -19 35 0 12 15 17 17 27
6 15 -14 33 -17 25 -3 -8 12 31 44 43 36 6 -3 11 -2 11 3 0 6 9 8 19 5 10 -3
28 0 40 6 20 11 20 13 6 42 -18 34 -12 71 10 62 9 -3 18 3 22 13 4 11 14 24
22 31 14 10 14 12 -1 18 -11 4 -17 16 -16 31 3 27 13 31 22 9 4 -11 14 -14 33
-10 16 3 39 8 53 10 14 2 35 6 48 10 16 5 22 3 22 -8 0 -8 6 -20 14 -26 12
-10 17 -8 25 8 l11 20 35 -21 c28 -16 33 -23 24 -34 -15 -18 -3 -34 26 -34 30
0 58 63 43 96 -14 30 6 64 37 64 20 0 25 7 33 43 5 25 5 51 -1 64 -7 16 -5 26
8 39 10 10 15 27 12 41 -3 15 1 27 9 30 7 3 16 20 20 39 7 36 32 57 61 52 37
-6 15 98 -25 122 -15 9 -15 11 -2 22 20 17 22 69 3 91 -12 12 -12 17 -3 17 8
0 10 6 5 18 -4 9 -7 27 -6 40 0 13 -5 22 -14 22 -8 0 -15 -5 -15 -12 0 -6 -3
-9 -6 -6 -12 13 21 48 39 42 16 -5 17 -2 11 33 -4 21 -11 40 -15 41 -13 5 -11
50 1 57 8 5 7 11 -1 21 -9 11 -8 14 8 14 16 0 18 7 17 58 -1 31 -3 70 -3 85
-1 25 -3 27 -22 17 -19 -11 -20 -9 -15 25 6 34 5 36 -16 31 -13 -3 -17 -3 -10
0 6 3 12 12 12 19 0 25 23 65 36 65 9 0 12 9 9 28 -3 15 -7 38 -9 52 -2 14 -8
24 -14 23 -5 -1 -8 6 -5 17 3 11 9 18 13 15 4 -3 7 13 6 35 0 22 -3 40 -6 40
-7 0 -5 74 3 87 4 6 4 13 1 16 -4 3 -8 29 -10 56 -3 37 -1 50 8 49 16 -4 12
64 -4 73 -7 4 -6 9 1 13 6 4 15 5 21 1 12 -7 6 65 -6 74 -5 3 -10 20 -11 36
-2 40 -8 77 -16 95 -3 8 -7 29 -9 46 -3 25 -1 30 12 27 14 -4 17 2 14 34 -1
26 -7 37 -16 35 -7 -2 -10 0 -6 3 4 4 3 15 -2 25 -13 24 -1 64 15 50 7 -6 20
-8 29 -4 9 3 16 1 16 -5 0 -15 43 -14 59 2 10 10 14 9 22 -5 8 -15 21 -17 87
-13 42 3 100 11 129 19 48 13 52 13 56 -5 3 -13 15 -19 34 -20 15 -1 38 -3 51
-4 13 -1 29 3 35 9 7 6 20 12 30 12 14 2 15 -1 6 -12 -6 -7 -7 -19 -3 -26 4
-7 9 -24 10 -38 1 -14 0 -19 -3 -12 -7 19 -33 14 -33 -6 0 -10 -5 -23 -12 -30
-9 -9 -8 -15 4 -24 26 -21 29 -58 7 -81 -23 -25 -24 -37 -4 -37 21 0 19 -13
-5 -28 -13 -8 -20 -23 -20 -42 0 -17 -4 -30 -10 -30 -5 0 -10 -6 -11 -12 0 -7
-11 -35 -24 -62 -12 -28 -21 -56 -18 -63 5 -13 -12 -17 -48 -14 -18 2 -33 -56
-17 -65 29 -18 29 -97 0 -92 -10 2 -15 -6 -16 -30 -1 -25 3 -32 19 -33 11 0
14 -3 8 -6 -16 -6 1 -41 27 -60 19 -13 16 -58 -5 -79 -13 -13 -12 -49 3 -86 6
-15 9 -35 5 -43 -3 -9 -2 -15 3 -13 10 3 64 -42 64 -53 0 -4 -8 -5 -19 -2 -17
4 -18 1 -8 -41 6 -26 16 -46 24 -46 7 0 13 -4 13 -10 0 -5 11 -10 25 -10 14 0
28 -7 31 -15 11 -27 62 -76 69 -65 9 15 51 12 65 -5 10 -12 10 -15 -4 -15 -9
0 -16 -7 -16 -15 0 -8 -7 -15 -15 -15 -14 0 -13 -3 2 -24 15 -21 20 -23 29
-10 10 13 12 13 18 -1 3 -8 14 -15 25 -15 16 0 19 -6 17 -35 -3 -34 0 -37 34
-37 3 -1 18 2 33 6 17 4 26 3 23 -3 -13 -20 27 -20 52 0 23 18 27 19 30 5 2
-9 7 -16 10 -16 4 0 25 -16 47 -35 37 -32 74 -48 60 -25 -3 6 4 10 17 11 49 1
81 8 88 19 5 8 9 6 14 -5 4 -12 10 -14 19 -7 16 13 47 -8 47 -33 0 -10 8 -24
18 -31 16 -12 15 -13 -5 -14 -19 0 -22 -5 -19 -37 2 -25 10 -39 22 -43 16 -6
15 -7 -5 -13 -17 -4 -22 -11 -17 -22 3 -9 6 -28 6 -41 0 -21 3 -23 19 -14 27
14 30 13 24 -10 -3 -11 -1 -20 4 -20 26 0 83 -73 83 -106 0 -8 9 -14 19 -14
11 0 23 -5 26 -11 4 -6 13 -8 21 -5 8 3 14 -1 14 -9 0 -8 4 -15 10 -15 5 0 7
7 4 15 -4 10 0 15 13 15 28 0 35 -11 16 -25 -14 -11 -13 -13 10 -17 19 -4 27
-1 27 8 0 8 7 14 15 14 7 0 18 7 23 16 8 15 10 15 15 0 4 -10 1 -16 -7 -16
-18 0 -13 -37 7 -57 13 -14 17 -14 17 -3 0 10 3 10 13 -3 15 -21 53 -16 49 7
-5 28 7 18 23 -19 18 -45 47 -75 53 -57 2 7 15 17 28 22 15 6 24 18 24 31 0
17 5 20 25 17 17 -4 29 0 35 11 8 15 11 15 37 -1 27 -16 30 -16 41 0 11 15 12
15 8 -5 -4 -24 8 -31 19 -12 4 5 12 8 18 6 7 -2 20 2 29 11 10 8 18 12 18 8 0
-11 -71 -76 -99 -91 -15 -7 -33 -25 -41 -39 -9 -18 -19 -24 -31 -21 -12 4 -25
-4 -39 -23 -15 -20 -28 -28 -41 -25 -13 4 -19 0 -19 -11 0 -9 -6 -19 -14 -22
-8 -3 -19 -19 -25 -35 -7 -19 -15 -27 -25 -23 -20 7 -58 -14 -50 -28 5 -8 0
-9 -16 -5 -24 6 -72 -23 -120 -74 -14 -14 -35 -29 -47 -33 -12 -4 -33 -19 -46
-34 -23 -27 -38 -35 -69 -36 -10 0 -18 -4 -18 -8 0 -4 -4 -8 -9 -8 -14 0 -61
-45 -61 -59 0 -6 -7 -11 -15 -11 -9 0 -12 -6 -8 -17 5 -13 2 -15 -17 -10 -26
7 -84 -28 -75 -44 4 -5 2 -9 -3 -9 -5 0 -31 -17 -58 -37 -27 -21 -53 -38 -59
-39 -5 0 -16 -2 -22 -2 -7 -1 -13 -8 -13 -16 0 -8 -7 -16 -15 -19 -8 -3 -12
-15 -10 -25 2 -15 -1 -19 -15 -15 -12 3 -24 -5 -36 -26 -19 -32 -48 -41 -57
-18 -3 8 -10 5 -22 -10 -9 -13 -20 -23 -25 -23 -13 0 -60 -46 -60 -59 0 -15
-27 -14 -33 2 -3 8 -13 3 -31 -15 -25 -24 -29 -57 -5 -43 5 4 9 1 9 -4 0 -6
-7 -11 -15 -11 -9 0 -12 -6 -9 -15 5 -11 -1 -15 -21 -15 -19 0 -26 -4 -22 -14
6 -15 -26 -46 -48 -46 -9 0 -18 7 -22 16 -5 13 -10 11 -33 -11 -14 -14 -28
-24 -31 -22 -2 2 -14 -7 -26 -20 l-23 -24 22 -8 c19 -7 20 -8 3 -14 -11 -5
-22 -1 -29 9 -11 14 -16 12 -45 -21 -18 -20 -30 -43 -27 -50 2 -7 -2 -16 -10
-19 -9 -3 -12 -11 -8 -17 3 -6 1 -15 -7 -19 -8 -5 -12 -23 -11 -44 2 -20 -2
-36 -8 -36 -5 0 -10 5 -10 10 0 6 -5 10 -11 10 -6 0 1 -16 15 -35 15 -19 25
-35 22 -35 -3 0 4 -11 16 -25 14 -16 24 -21 28 -14 5 6 9 2 13 -10 3 -13 0
-21 -7 -21 -15 0 -9 -72 7 -82 8 -4 7 -15 -2 -35 -9 -19 -9 -29 -2 -31 6 -2 9
-8 5 -13 -3 -5 -1 -9 5 -9 6 0 8 -7 5 -15 -4 -8 -1 -15 6 -15 7 0 10 -8 7 -20
-4 -15 0 -20 15 -20 15 0 18 -5 13 -21 -11 -34 20 -59 70 -55 24 2 47 6 53 10
5 3 13 -1 16 -10 5 -12 13 -14 34 -9 56 14 69 16 140 21 40 2 82 9 93 14 15 9
19 7 19 -5 0 -8 11 -21 25 -27 14 -6 25 -15 25 -19 0 -4 14 -10 30 -14 30 -7
38 -19 20 -30 -15 -9 -1 -27 16 -21 17 7 28 -10 12 -18 -9 -4 -6 -10 10 -22
25 -19 29 -34 7 -34 -19 0 -20 -24 -2 -39 10 -8 19 -6 35 9 12 11 26 20 32 20
5 0 10 10 10 21 0 18 -2 20 -16 8 -13 -10 -17 -10 -25 2 -13 21 -11 26 14 33
33 9 37 8 37 -10 0 -9 7 -14 18 -12 11 3 16 12 15 26 -3 29 21 29 41 0 12 -17
18 -19 29 -9 8 6 21 9 30 5 10 -3 20 2 27 16 7 12 16 18 23 13 16 -10 39 -10
54 0 7 5 17 6 22 2 6 -3 23 6 38 21 15 15 34 28 43 29 28 3 60 16 60 26 0 5 7
9 15 9 8 0 15 5 15 11 0 6 6 9 14 6 15 -6 46 22 46 41 0 6 6 9 14 6 7 -3 16 2
19 10 4 9 16 16 27 16 12 0 35 14 52 30 16 17 33 30 38 30 5 0 11 6 14 13 5
10 7 10 12 0 8 -18 41 -16 48 2 3 8 12 15 21 15 20 0 19 17 -2 29 -10 6 -13
11 -7 11 6 0 16 12 23 26 8 18 17 24 27 20 9 -3 30 2 48 13 17 11 34 20 38 21
8 1 57 41 93 76 12 11 27 18 33 16 7 -2 12 1 12 7 0 6 10 15 21 22 17 9 24 8
30 -2 8 -11 11 -11 19 3 7 10 17 15 27 11 9 -4 21 0 27 9 6 8 20 19 31 26 19
10 19 11 -5 21 -14 5 -20 10 -13 10 18 1 74 58 71 73 -4 19 34 22 44 3 9 -14
13 -13 36 12 15 15 25 34 24 41 -2 6 4 12 11 12 8 0 17 6 20 14 3 8 24 20 46
27 23 7 41 18 41 25 0 7 9 16 20 19 16 5 19 12 14 28 -3 12 -7 26 -8 31 -2 14
67 26 81 14 10 -8 13 -6 13 5 0 9 10 23 22 31 l22 15 -25 10 c-17 7 -19 10 -6
10 9 1 17 6 17 11 0 6 7 10 15 10 9 0 12 6 8 16 -5 14 -2 16 22 10 21 -5 32
-2 47 14 10 11 23 18 29 15 5 -4 12 2 16 12 3 10 12 22 20 26 7 5 11 21 9 40
-4 29 -3 30 10 12 14 -18 14 -18 29 1 9 10 22 31 30 47 9 15 20 27 25 27 6 0
10 7 10 15 0 9 7 18 15 21 9 4 13 14 9 28 -4 18 0 21 30 23 19 2 38 -2 41 -7
4 -6 15 0 26 15 11 13 17 30 14 35 -4 6 0 21 9 34 17 27 66 41 66 20 0 -20 7
-17 40 16 17 17 30 28 30 25 0 -3 14 10 31 30 23 26 29 39 21 48 -8 9 -6 16 8
25 16 10 21 9 29 -5 8 -16 11 -15 30 7 18 23 19 26 4 38 -9 6 -13 12 -7 12 5
0 22 12 37 26 22 19 26 28 18 38 -9 10 -8 15 5 20 10 4 22 -1 30 -11 13 -17
13 -17 14 0 0 10 7 20 17 24 13 5 12 8 -8 15 -22 8 -22 10 -6 19 9 6 15 14 12
20 -4 5 -1 9 4 9 6 0 11 -8 11 -17 1 -16 2 -16 16 2 8 11 20 19 25 17 5 -1 9
3 9 8 0 6 11 23 25 38 14 15 25 34 25 44 0 9 4 20 10 23 15 9 12 27 -2 19 -7
-4 -4 2 6 14 11 12 25 22 31 22 7 0 15 10 18 21 4 15 11 20 21 16 9 -4 16 -2
16 4 0 5 10 24 23 41 16 22 18 32 9 35 -13 5 19 34 51 46 9 3 17 13 17 21 0 9
8 20 19 25 10 6 22 23 26 38 6 26 42 60 58 55 4 -1 7 3 7 9 0 6 10 33 21 60
17 38 24 47 35 38 10 -8 17 -1 33 30 14 31 16 41 6 41 -11 0 -10 6 2 31 9 17
19 47 23 65 7 30 6 34 -14 34 -19 1 -19 2 -3 11 22 13 22 36 0 42 -17 4 -17 5
-1 6 14 1 16 7 11 31 -4 23 -1 34 12 44 11 8 15 18 10 25 -4 7 1 28 11 46 20
38 14 55 -12 34 -16 -13 -17 -11 -12 14 4 19 1 30 -8 34 -18 7 -18 21 1 39 13
13 13 20 -2 55 -9 23 -12 44 -7 47 15 11 14 62 -1 62 -8 0 -11 -8 -8 -22 3
-18 2 -19 -5 -8 -5 8 -13 25 -16 38 -6 18 -3 22 13 22 27 0 27 1 -6 59 -2 2
-11 -2 -20 -10 -16 -12 -17 -12 -6 2 11 13 9 20 -11 38 -20 18 -23 29 -19 65
6 48 -14 67 -42 40 -16 -17 -35 -11 -35 12 0 8 -3 14 -7 14 -5 0 -16 14 -25
30 -13 23 -24 30 -49 30 -23 0 -30 4 -25 15 5 14 -39 65 -58 65 -4 0 -4 6 3
13 8 10 4 19 -18 38 -15 13 -26 31 -24 39 6 23 -15 72 -28 65 -6 -4 -8 -13 -5
-21 3 -8 2 -14 -2 -14 -4 0 -15 19 -24 41 -16 38 -38 46 -38 13 0 -12 -6 -14
-37 -14 -5 0 -8 8 -9 18 0 24 -22 62 -36 62 -5 0 -8 -9 -5 -20 4 -15 0 -20
-13 -20 -10 0 -20 -6 -23 -12 -5 -17 -57 9 -57 29 0 7 -10 14 -22 14 -17 1
-19 2 -5 6 18 5 24 33 7 33 -18 0 -50 -34 -50 -53 0 -14 -5 -18 -20 -14 -15 4
-20 0 -20 -14 0 -18 -1 -18 -20 1 -11 11 -26 20 -34 20 -8 0 -23 16 -35 36
-23 38 -50 39 -29 1 9 -19 9 -20 -3 -10 -11 9 -18 9 -30 0 -10 -7 -54 -12
-108 -12 -50 0 -91 -4 -91 -9 0 -5 -9 -1 -20 9 -14 12 -28 16 -50 11 -23 -4
-32 -2 -37 10 -3 8 -12 13 -19 10 -7 -3 -16 -1 -19 4 -9 15 -25 12 -25 -5 0
-8 8 -15 18 -15 9 -1 -1 -7 -23 -15 -50 -18 -48 -19 -40 5 8 24 0 25 -39 5
-16 -9 -38 -13 -48 -9 -12 4 -24 -1 -32 -11 -7 -10 -19 -16 -27 -13 -8 3 -20
-1 -27 -9 -7 -7 -22 -13 -33 -13 -15 0 -20 6 -18 23 2 12 0 27 -4 34 -4 6 -9
38 -11 71 -3 50 -1 59 13 58 9 0 16 5 15 12 -1 6 -2 25 -2 42 -2 23 -6 28 -19
23 -12 -5 -15 -2 -10 10 3 9 0 31 -7 49 -11 28 -10 38 5 66 15 29 18 31 32 17
20 -20 21 -19 52 9 17 16 22 27 15 31 -8 5 -8 11 -1 19 6 7 8 16 4 19 -3 4 5
7 18 7 14 0 30 -5 35 -10 7 -7 23 0 49 25 22 19 43 35 47 35 4 0 8 9 8 20 0
11 7 20 15 20 8 0 15 5 15 10 0 6 6 10 14 10 7 0 19 6 25 14 14 17 51 9 51
-10 0 -8 5 -14 10 -14 6 0 10 5 10 10 0 6 9 10 20 10 24 0 26 18 3 27 -14 5
-12 8 7 15 13 5 26 5 29 1 8 -11 71 -12 71 -2 0 5 7 9 15 9 18 0 20 16 3 23
-8 3 -7 6 4 6 9 1 19 10 23 20 8 25 35 16 35 -12 0 -18 1 -19 18 -4 9 8 21 16
25 15 17 0 19 12 3 18 -23 9 -20 19 8 20 24 2 80 44 58 44 -7 0 -12 5 -12 10
0 6 5 10 10 10 15 0 51 40 45 49 -2 5 2 11 10 15 9 3 15 0 15 -9 0 -20 7 -19
32 5 19 17 19 20 5 20 -9 0 -17 5 -17 10 0 6 6 10 14 10 8 0 16 6 19 13 3 9 7
9 18 0 12 -10 18 -8 29 10 8 12 13 29 12 37 -2 11 2 9 13 -4 8 -11 15 -14 15
-7 0 7 4 10 9 7 4 -3 37 22 71 55 45 43 60 63 51 69 -11 6 -11 8 0 12 8 3 14
13 14 24 0 12 8 20 23 22 12 2 29 16 37 33 9 16 22 29 31 29 8 0 17 7 20 15 4
8 13 15 20 15 8 0 17 7 20 15 4 8 10 12 15 9 6 -3 16 -1 24 6 7 6 21 10 31 8
9 -2 19 3 22 11 3 10 -1 12 -17 8 -11 -3 -21 -1 -21 4 0 5 7 9 15 9 8 0 13 6
11 13 -1 6 -1 9 1 5 9 -15 31 -8 36 12 3 11 10 20 16 20 14 0 14 -17 1 -25
-13 -8 -13 -35 1 -35 6 0 9 6 7 12 -3 7 0 18 6 25 29 33 34 41 28 49 -4 5 -13
9 -21 9 -8 0 -16 6 -18 13 -3 6 0 12 7 12 6 0 8 -5 4 -12 -4 -7 -3 -8 5 -4 9
6 9 11 -1 23 -7 9 -13 21 -14 27 -3 32 -5 36 -15 36 -6 0 -8 -9 -4 -22 8 -31
-10 -2 -20 31 -5 16 -4 21 4 17 6 -4 11 -2 11 4 0 17 -29 23 -45 10 -8 -7 -12
-17 -8 -24 3 -6 0 -6 -8 2 -19 18 -37 15 -44 -8 -4 -11 -11 -18 -16 -14 -5 3
-6 10 -3 16 6 9 -12 6 -53 -9 -18 -7 -16 17 4 39 9 10 13 21 8 26 -4 4 -10 1
-13 -7 -2 -7 -14 -23 -25 -34 -19 -19 -21 -19 -27 -3 -3 10 -10 17 -15 16 -5
-1 -11 3 -13 8 -2 6 9 9 23 8 35 -4 26 18 -10 24 -27 5 -49 30 -26 30 6 0 7 8
4 18 -6 16 -6 16 11 -1 10 -10 16 -21 12 -24 -5 -5 38 -33 50 -33 12 0 1 29
-13 34 -12 5 -14 9 -5 18 19 19 14 38 -10 38 -18 0 -20 -2 -8 -10 8 -5 11 -12
7 -16 -4 -4 -16 1 -27 11 -15 14 -17 22 -9 36 5 11 7 24 4 29 -3 6 -1 10 4 10
6 0 11 -12 11 -26 0 -20 4 -25 16 -20 25 10 63 -4 57 -20 -8 -22 15 -16 28 7
9 17 8 23 -2 30 -8 5 -13 24 -12 50 2 32 -3 46 -20 60 -29 24 -45 24 -24 1 21
-23 21 -28 1 -36 -14 -5 -15 -4 -4 9 18 22 -13 21 -35 -1 -9 -9 -19 -14 -22
-10 -4 3 8 20 26 38 23 22 29 34 21 42 -8 8 -13 7 -20 -4 -5 -8 -12 -11 -15
-8 -4 4 -19 2 -33 -3 -17 -7 -29 -6 -36 1 -7 7 -6 10 2 10 7 0 12 5 12 10 0
13 -27 13 -35 0 -3 -5 2 -21 11 -35 9 -14 14 -28 10 -32 -3 -3 -6 -2 -6 4 0
11 -45 63 -55 63 -3 0 -5 -8 -6 -17 0 -11 -3 -13 -6 -5 -2 6 -11 12 -20 12
-10 0 -13 -6 -8 -22 4 -16 4 -19 -3 -9 -8 11 -12 10 -21 -5 -10 -18 -10 -17
-11 4 0 19 -4 22 -27 16 -48 -10 -54 -14 -48 -24 4 -6 10 -8 14 -6 4 3 8 -1 8
-9 0 -10 -7 -13 -25 -8 -17 4 -23 2 -18 -6 4 -6 1 -11 -8 -11 -19 0 -22 26 -4
32 6 2 8 10 4 17 -6 9 -12 8 -27 -5 -12 -11 -19 -13 -19 -5 0 7 -5 9 -12 4 -7
-4 -23 -8 -35 -9 -12 0 -28 -6 -36 -12 -7 -6 -23 -9 -35 -5 -17 4 -24 0 -31
-18 -8 -19 -10 -20 -10 -5 -1 16 -6 17 -38 11 -45 -8 -44 -7 -46 -34 -1 -11
-7 -21 -14 -21 -7 0 -13 -4 -13 -10 0 -5 -9 -10 -21 -10 -11 0 -17 -4 -14 -10
3 -5 1 -10 -4 -10 -6 0 -11 7 -11 15 0 8 -4 15 -10 15 -5 0 -10 -5 -10 -10 0
-7 -6 -7 -19 0 -11 5 -28 10 -39 10 -26 0 -80 -28 -90 -46 -7 -13 -13 -13 -35
-3 -18 8 -30 9 -39 2 -7 -6 -29 -13 -49 -17 -21 -4 -42 -13 -49 -21 -8 -9 -19
-11 -33 -6 -31 11 -55 3 -62 -20 -10 -31 -25 -22 -25 15 0 26 4 33 18 32 10 0
16 5 13 14 -2 8 -5 23 -6 34 -1 10 -9 22 -18 28 -21 11 -22 28 -2 28 18 0 19
12 3 28 -9 9 -9 12 0 12 11 0 11 58 -2 78 -3 5 -6 25 -6 44 1 18 1 51 0 72 0
22 4 42 9 45 8 6 24 86 24 126 0 11 -3 28 -7 38 -6 12 -4 17 7 17 9 0 16 8 17
18 0 9 3 40 5 67 2 28 5 77 7 110 2 33 6 63 10 66 15 10 10 82 -8 110 -3 6 -1
15 7 20 7 4 14 18 15 31 0 13 7 55 14 95 7 39 9 79 5 90 -12 29 -14 62 -4 69
5 3 7 10 4 15 -3 5 1 6 9 3 12 -5 14 3 12 40 -2 26 0 48 4 51 12 7 -2 65 -16
65 -19 0 -27 19 -14 35 8 9 9 36 4 84 -4 48 -3 75 5 84 14 18 3 77 -14 77 -7
0 -18 14 -24 30 -8 25 -7 30 5 30 11 0 13 6 9 20 -5 14 -2 20 10 20 11 0 15 6
11 18 -2 9 -8 32 -11 50 -5 25 -11 33 -24 29 -24 -6 -44 38 -26 56 9 9 11 29
8 60 -6 46 -18 61 -29 33 -5 -12 -8 -12 -24 1 -10 9 -16 22 -13 29 2 7 -5 15
-16 19 -12 3 -21 13 -21 20 0 8 -6 18 -13 22 -7 4 -19 21 -27 37 -31 60 -35
65 -55 64 -11 0 -28 3 -37 7 -13 5 -18 3 -18 -10 0 -9 -5 -13 -10 -10 -6 4 -8
11 -5 16 4 5 2 9 -3 9 -6 0 -13 11 -16 25 -10 41 -42 66 -72 59 -16 -4 -29 -2
-33 5 -9 15 -101 -5 -101 -21 0 -6 -6 -8 -14 -5 -8 3 -17 -1 -20 -10 -4 -11
-10 -12 -19 -5 -33 26 -53 23 -70 -13 -13 -26 -23 -35 -42 -35 -26 0 -34 -14
-12 -24 6 -3 0 -4 -14 -1 -38 7 -72 -23 -72 -63 0 -28 -4 -32 -29 -32 -18 0
-28 -5 -28 -15 0 -8 -7 -15 -15 -15 -8 0 -15 -6 -15 -12 0 -8 -7 -5 -15 6 -15
19 -15 19 -35 -2 -11 -12 -27 -19 -35 -16 -18 7 -76 -19 -95 -41 -10 -12 -10
-18 0 -30 14 -17 40 -20 40 -5 0 18 14 10 38 -21 19 -23 22 -33 12 -44 -15
-18 -5 -35 21 -35 25 0 24 -21 -1 -48 -25 -27 -29 -27 -46 -4 -12 16 -13 16
-26 -1 -10 -13 -21 -16 -45 -11 -19 4 -30 11 -27 19 6 15 -18 36 -33 27 -26
-16 -15 -76 19 -103 20 -16 20 -16 -11 -32 -29 -14 -31 -14 -31 3 0 23 -25 33
-40 15 -12 -14 -4 -81 12 -101 5 -8 3 -14 -7 -18 -12 -4 -14 -10 -6 -23 7 -12
5 -21 -7 -31 -12 -9 -13 -15 -5 -18 18 -8 4 -32 -16 -27 -14 4 -18 -2 -19 -27
0 -17 5 -33 13 -36 9 -4 12 -21 11 -55 -1 -27 1 -49 6 -49 4 0 8 -9 8 -20 0
-11 -4 -20 -9 -20 -10 0 -8 -75 3 -109 5 -13 4 -26 -1 -30 -22 -16 -31 -63
-28 -144 3 -72 2 -85 -10 -80 -11 4 -15 -3 -15 -25 0 -17 6 -32 13 -35 9 -3 9
-9 1 -24 -7 -12 -8 -25 -3 -35 6 -11 4 -18 -7 -22 -13 -5 -14 -9 -5 -20 9 -10
9 -26 3 -53 -11 -41 -13 -71 -16 -175 -1 -49 -5 -68 -14 -68 -12 0 -10 -49 5
-90 9 -24 9 -121 0 -127 -4 -2 -5 -9 -1 -14 3 -6 8 -41 9 -80 3 -55 1 -69 -11
-69 -16 0 -19 -16 -5 -24 5 -4 12 -24 16 -45 6 -34 3 -42 -22 -67 -16 -16 -36
-30 -44 -32 -8 -2 -19 -10 -26 -19 -10 -13 -15 -14 -27 -4 -8 7 -19 10 -25 7
-5 -3 -21 -2 -35 4 -14 5 -26 6 -26 1 0 -5 -11 -8 -25 -7 -14 0 -25 4 -25 7 0
3 -16 5 -35 5 -19 -1 -35 -4 -35 -8 0 -3 -18 -9 -40 -13 -22 -4 -44 -14 -50
-23 -5 -10 -10 -13 -10 -9 0 5 -8 1 -17 -9 -17 -17 -18 -17 -21 10 -3 20 -8
26 -19 22 -8 -3 -23 -6 -33 -6 -18 0 -21 -15 -7 -37 11 -17 2 -16 -33 2 -19
10 -31 11 -35 5 -4 -6 -10 -8 -15 -5 -4 2 -25 7 -46 11 -22 3 -42 11 -45 16
-4 6 -14 8 -23 5 -8 -3 -18 -2 -22 4 -4 6 -12 5 -22 -3 -14 -11 -15 -10 -9 5
6 17 3 18 -33 14 -22 -2 -42 -1 -45 3 -2 3 -18 5 -34 2 -26 -4 -29 -7 -20 -23
11 -21 -5 -28 -17 -7 -5 8 -11 6 -20 -7 -12 -17 -14 -16 -25 9 -13 27 -24 33
-33 17 -3 -5 -14 -7 -25 -4 -13 3 -20 -2 -25 -19 -5 -19 -8 -20 -16 -8 -5 8
-7 22 -4 32 4 13 -2 16 -31 16 -37 0 -42 -6 -22 -27 10 -11 7 -12 -15 -7 -19
4 -28 2 -28 -5 0 -7 -3 -9 -6 -6 -4 3 -16 1 -27 -4 -15 -8 -22 -8 -28 2 -14
23 -10 39 10 39 14 0 17 6 13 26 -2 14 -10 23 -16 21 -7 -3 -12 3 -12 12 -1 9
-2 34 -3 56 -4 58 -3 65 14 65 14 0 14 3 0 30 -9 18 -11 30 -5 30 26 0 37 24
27 60 -5 19 -10 51 -11 71 -2 29 1 36 13 31 11 -4 13 -1 8 12 -4 10 -7 22 -7
28 0 6 -6 8 -12 5 -9 -3 -13 8 -12 37 2 63 3 66 19 60 21 -8 19 9 -5 36 -11
13 -20 25 -20 27 0 3 9 16 20 30 23 29 26 59 8 66 -10 3 -10 9 -1 24 9 16 9
23 0 32 -9 9 -8 14 2 21 17 10 23 111 11 166 -4 19 -3 51 2 72 5 20 10 54 11
75 0 29 4 37 15 32 10 -4 12 0 8 11 -3 8 -6 20 -6 25 0 4 -7 5 -17 2 -11 -4
-14 -3 -9 6 5 8 0 18 -13 27 -25 18 -28 36 -3 27 9 -3 14 -3 10 2 -4 4 -3 14
3 22 9 9 8 13 0 13 -6 0 -11 -4 -11 -10 0 -5 -4 -10 -10 -10 -5 0 -7 7 -4 15
4 9 0 15 -7 15 -9 0 -7 5 5 12 18 10 18 11 -5 24 -23 13 -15 19 19 15 16 -2
16 -1 -8 54 -11 25 -24 44 -29 41 -5 -3 -11 1 -15 9 -3 8 -12 15 -20 15 -11 0
-26 19 -30 40 -4 17 -20 31 -32 26 -7 -3 -11 0 -8 7 2 7 -4 13 -16 14 -11 1
-18 -2 -15 -8 9 -14 -18 -10 -39 6 -16 12 -17 17 -6 30 8 10 10 19 4 23 -19
14 -13 32 11 32 18 0 23 4 19 15 -4 8 -2 15 4 15 6 0 8 9 5 20 -4 15 -11 19
-25 14 -14 -4 -18 -3 -13 6 4 6 -3 21 -16 33 l-24 22 27 3 c19 2 25 8 21 18
-3 7 -9 12 -13 9 -12 -8 -21 43 -14 81 5 28 3 34 -10 34 -10 0 -15 4 -11 9 3
6 -4 15 -15 21 -11 6 -18 15 -15 21 4 5 -2 9 -11 9 -10 0 -14 3 -11 7 4 3 2
12 -4 19 -13 15 -4 34 16 34 8 0 12 6 9 14 -3 8 -11 13 -18 10 -9 -3 -13 6
-13 26 0 18 -6 36 -13 40 -11 7 -11 13 -2 32 7 13 10 15 8 6 -6 -19 9 -34 18
-19 3 5 -3 20 -14 32 -18 22 -19 22 -20 5 0 -31 -12 -10 -16 29 -2 19 -8 43
-13 53 -9 15 -10 15 -11 -5 0 -18 -5 -22 -26 -21 -20 2 -22 4 -11 13 18 13 32
85 16 85 -5 0 -7 -4 -4 -10 9 -15 -4 -12 -21 4 -16 16 -19 36 -5 36 5 0 11 7
14 14 4 10 1 13 -9 9 -7 -3 -14 -9 -14 -14 0 -5 -4 -9 -10 -9 -5 0 -10 9 -10
20 0 11 -5 19 -12 18 -7 -2 -17 7 -23 20 -11 26 -15 26 -33 6z m3034 -5134 c9
0 12 5 9 10 -3 6 -2 10 4 10 5 0 11 -5 13 -10 2 -6 46 -11 99 -13 l96 -2 -10
-32 c-8 -26 -13 -30 -24 -22 -16 14 -60 -12 -71 -41 -4 -10 -11 -20 -17 -21
-27 -5 -65 -22 -65 -28 0 -4 -15 -13 -34 -19 -24 -9 -38 -22 -45 -43 -8 -25
-14 -29 -34 -24 -19 5 -25 2 -30 -15 -4 -16 -11 -20 -30 -15 -24 6 -57 -15
-57 -36 0 -18 -24 -36 -42 -31 -12 3 -18 -1 -18 -12 0 -10 -6 -13 -15 -10 -17
7 -104 -54 -105 -73 0 -7 -6 -10 -14 -7 -8 3 -16 -2 -19 -13 -4 -15 -5 -14 -6
4 0 12 -5 25 -11 28 -15 10 -12 55 5 61 21 8 19 50 -2 59 -17 6 -17 7 0 16 9
6 22 7 27 4 6 -3 13 1 16 9 8 21 30 20 38 0 6 -16 20 -12 22 7 1 5 2 14 3 19
2 16 21 12 21 -4 0 -8 10 -16 23 -18 14 -2 21 -9 19 -19 -3 -21 27 -34 34 -14
12 30 -1 50 -30 48 -23 -2 -26 1 -21 15 4 9 10 25 12 35 4 13 9 15 19 6 7 -6
11 -16 8 -23 -4 -10 2 -12 20 -9 25 5 31 17 28 56 -1 9 3 17 9 17 13 0 3 88
-11 105 -5 6 7 11 33 13 23 1 43 7 45 12 2 5 19 12 38 16 19 3 37 11 41 17 5
8 8 7 11 -1 2 -7 10 -12 18 -12z"/>
</g>
</svg>
